<svg id="Layer_1" data-name="Layer 1" xmlns="http://www.w3.org/2000/svg" viewBox="0 0 384 100"><defs><style>.cls-1{fill:#fff;}</style></defs><title>hartsfield-design-logo</title><path class="cls-1" d="M0.19,0H5.54V16.12h20.1V0H31V39H25.64V20.77H5.54V39H0.19V0Z"/><path class="cls-1" d="M33.24,0H48.87q8,0,12.35,5.71,3.91,5.15,3.92,13.2a26.55,26.55,0,0,1-2.31,11.23Q58.75,39,48.82,39H33.24V0ZM47.83,34.5a14.06,14.06,0,0,0,4.32-.56,9.54,9.54,0,0,0,4.95-4,16.52,16.52,0,0,0,2.21-6.06,23.54,23.54,0,0,0,.39-4.09q0-7.25-2.83-11.26t-9.1-4H38.59v30h9.24Z"/><path class="cls-1" d="M0,88V48.82H8.15V63.75H23.4V48.82h8.15V88H23.4V70.49H8.15V88H0Z"/><path class="cls-1" d="M48,70.36a12,12,0,0,0,3-.66,2.28,2.28,0,0,0,1.64-2.15,2.54,2.54,0,0,0-1.26-2.46,8,8,0,0,0-3.68-.68q-2.73,0-3.86,1.33a5.47,5.47,0,0,0-1.08,2.66H35.44a11.06,11.06,0,0,1,2.14-6.24q3-3.82,10.38-3.82a18.54,18.54,0,0,1,8.5,1.89q3.72,1.89,3.72,7.12V80.61q0,1.38.05,3.35a4.2,4.2,0,0,0,.45,2,2.71,2.71,0,0,0,1.12.88V88H53.54a8.36,8.36,0,0,1-.48-1.65q-0.13-.77-0.21-1.75a15.66,15.66,0,0,1-3.64,2.89,11,11,0,0,1-5.57,1.41,9.63,9.63,0,0,1-6.55-2.24,8,8,0,0,1-2.58-6.36q0-5.34,4.16-7.73a18.61,18.61,0,0,1,6.71-1.86Zm4.64,3.53a8.4,8.4,0,0,1-1.47.73,12.48,12.48,0,0,1-2,.52l-1.73.32a11.4,11.4,0,0,0-3.49,1,3.46,3.46,0,0,0-1.79,3.21,3.35,3.35,0,0,0,1.09,2.8,4.17,4.17,0,0,0,2.66.86,7.94,7.94,0,0,0,4.58-1.43q2.1-1.43,2.18-5.23V73.89Z"/><path class="cls-1" d="M81.29,58.34l0.65,0v7.76q-0.72-.08-1.28-0.11l-0.91,0q-4.58,0-6.15,3a11.55,11.55,0,0,0-.88,5.15V88H65.09V59h7.24v5a16,16,0,0,1,3.06-4,8.35,8.35,0,0,1,5.54-1.78h0.36Z"/><path class="cls-1" d="M84,64.68V59.29h4V51.21h7.51v8.07h4.71v5.39H95.53V80A3.44,3.44,0,0,0,96,82.19q0.45,0.44,2.77.44h0.73l0.76,0v5.66l-3.59.13q-5.38.19-7.35-1.86a5.53,5.53,0,0,1-1.28-4V64.68H84Z"/><path class="cls-1" d="M109.36,78.73a5,5,0,0,0,1,2.87q1.42,1.51,5.24,1.51a8,8,0,0,0,3.57-.66,2.22,2.22,0,0,0,.26-3.93q-1.07-.66-7.94-2.28-4.95-1.22-7-3.05a6.61,6.61,0,0,1-2-5.21,9,9,0,0,1,3.16-6.89q3.16-2.88,8.9-2.88a16.39,16.39,0,0,1,8.87,2.16q3.43,2.16,3.94,7.48h-7.59a4.47,4.47,0,0,0-.83-2.31Q117.74,64,114.72,64a6.17,6.17,0,0,0-3.54.77,2.21,2.21,0,0,0-1.05,1.81,2,2,0,0,0,1.12,1.89q1.12,0.61,7.92,2.1a14.55,14.55,0,0,1,6.8,3.21,7.29,7.29,0,0,1,2.24,5.44,8.78,8.78,0,0,1-3.22,7Q121.78,89,115.06,89t-10.13-2.88a9.35,9.35,0,0,1-3.27-7.34h7.7Z"/><path class="cls-1" d="M144.07,48.46l1.6,0.12v6.16q-0.64-.08-2.14-0.12a2.47,2.47,0,0,0-2.08.66,2.41,2.41,0,0,0-.57,1.55v2.44h5v5.34h-5V88h-7.54V64.62h-4.26V59.29h4.15V57.43q0-4.65,1.57-6.4,1.65-2.6,8-2.6Q143.48,48.42,144.07,48.46Z"/><path class="cls-1" d="M157,55.57h-7.7v-7H157v7ZM149.29,59H157V88h-7.7V59Z"/><path class="cls-1" d="M181.66,59.61a11.8,11.8,0,0,1,5,4.28,14.21,14.21,0,0,1,2.31,6,36.89,36.89,0,0,1,.25,5.75H168.1q0.18,4.36,3,6.11a7.72,7.72,0,0,0,4.18,1.09,5.89,5.89,0,0,0,5.78-3.32h7.75A9.45,9.45,0,0,1,186,84.73Q182.13,89,175.11,89a15.85,15.85,0,0,1-10.22-3.56q-4.43-3.56-4.43-11.59,0-7.52,4-11.54a14,14,0,0,1,10.38-4A16.56,16.56,0,0,1,181.66,59.61Zm-11.35,6.54a7.86,7.86,0,0,0-2,4.48h13.07a6.31,6.31,0,0,0-2-4.57,6.66,6.66,0,0,0-4.5-1.56A6,6,0,0,0,170.31,66.14Z"/><path class="cls-1" d="M198.76,88h-7.59V48.82h7.59V88Z"/><path class="cls-1" d="M218.71,59.48a9.21,9.21,0,0,1,3.33,3.2V48.87h7.7V88h-7.38V84a10.69,10.69,0,0,1-3.7,3.74,10.42,10.42,0,0,1-5.17,1.17,10.8,10.8,0,0,1-8.56-4.1,15.73,15.73,0,0,1-3.47-10.53q0-7.41,3.42-11.66A11.14,11.14,0,0,1,214,58.33,9.38,9.38,0,0,1,218.71,59.48Zm1.86,20.62a10.54,10.54,0,0,0,1.68-6.19q0-5.31-2.69-7.6a5.8,5.8,0,0,0-3.83-1.38,5.33,5.33,0,0,0-4.89,2.51,11.61,11.61,0,0,0-1.56,6.23,11.5,11.5,0,0,0,1.58,6.41,5.36,5.36,0,0,0,4.81,2.4A5.61,5.61,0,0,0,220.58,80.11Z"/><path class="cls-1" d="M233.12,49h15.63q8,0,12.35,5.71Q265,59.82,265,67.86a26.55,26.55,0,0,1-2.31,11.23Q258.64,88,248.7,88H233.12V49Zm14.59,34.5A14.06,14.06,0,0,0,252,82.9a9.54,9.54,0,0,0,4.95-4,16.52,16.52,0,0,0,2.21-6.06,23.54,23.54,0,0,0,.39-4.09q0-7.25-2.83-11.26t-9.1-4h-9.19v30h9.24Z"/><path class="cls-1" d="M287.06,60.31A10.81,10.81,0,0,1,291.37,64a12.72,12.72,0,0,1,1.91,5,33,33,0,0,1,.42,6.27H273a12.27,12.27,0,0,0,2,7q1.9,2.62,5.89,2.62a7.58,7.58,0,0,0,5.94-2.48A8.45,8.45,0,0,0,288.59,79h4.71a9.89,9.89,0,0,1-1.24,3.49,12.57,12.57,0,0,1-2.35,3.15,11.07,11.07,0,0,1-5.36,2.87,16.23,16.23,0,0,1-3.88.42,11.92,11.92,0,0,1-9-3.86q-3.68-3.86-3.68-10.82t3.7-11.13a12.2,12.2,0,0,1,9.69-4.28A12.9,12.9,0,0,1,287.06,60.31Zm1.72,11.17a12.45,12.45,0,0,0-1.35-5q-2-3.45-6.52-3.45a7.21,7.21,0,0,0-5.49,2.38,9,9,0,0,0-2.35,6h15.71Z"/><path class="cls-1" d="M300.49,79a6.85,6.85,0,0,0,1.22,3.67Q303.56,85,308.13,85a9.63,9.63,0,0,0,4.78-1.16A3.82,3.82,0,0,0,315,80.29a3,3,0,0,0-1.65-2.79,19.92,19.92,0,0,0-4.17-1.35l-3.87-1a19.08,19.08,0,0,1-5.47-2,6,6,0,0,1-3.14-5.36,8.14,8.14,0,0,1,3-6.53,11.91,11.91,0,0,1,7.95-2.5q6.53,0,9.42,3.77a8.11,8.11,0,0,1,1.75,5.15h-4.53a5.41,5.41,0,0,0-1.17-2.93q-1.69-1.87-5.86-1.88a7.17,7.17,0,0,0-4.21,1,3.2,3.2,0,0,0-1.43,2.73,3.35,3.35,0,0,0,1.88,3,11.45,11.45,0,0,0,3.2,1.17l3.23,0.77q5.26,1.25,7.05,2.42a6.39,6.39,0,0,1,2.8,5.76,8.72,8.72,0,0,1-2.93,6.56q-2.93,2.76-8.91,2.76-6.44,0-9.13-2.88A10.81,10.81,0,0,1,295.89,79h4.61Z"/><path class="cls-1" d="M323.17,49H328v5.42h-4.87V49Zm0,10.7H328V88h-4.87V59.66Z"/><path class="cls-1" d="M349.5,60.67a13.13,13.13,0,0,1,2.76,2.71V59.79h4.42V85.66a19.09,19.09,0,0,1-1.59,8.55q-3,5.79-11.23,5.79a13.76,13.76,0,0,1-7.72-2.06,8,8,0,0,1-3.5-6.44h4.87a5.41,5.41,0,0,0,1.38,2.95Q340.5,96,344,96q5.48,0,7.18-3.88,1-2.28.93-8.15a9.37,9.37,0,0,1-3.45,3.24A12.35,12.35,0,0,1,335.21,85q-3.46-3.28-3.46-10.85,0-7.14,3.49-11.15a10.78,10.78,0,0,1,8.42-4A10.35,10.35,0,0,1,349.5,60.67Zm0.59,5.13a7,7,0,0,0-5.54-2.55A6.84,6.84,0,0,0,337.66,68a18.57,18.57,0,0,0-1,6.61q0,4.81,1.95,7.32a6.28,6.28,0,0,0,5.23,2.51,7.34,7.34,0,0,0,7.23-4.65,15,15,0,0,0,1.17-6.14Q352.26,68.34,350.08,65.79Z"/><path class="cls-1" d="M360.75,59.52h4.55v4A12.76,12.76,0,0,1,369.59,60a11.46,11.46,0,0,1,5-1.09q6.07,0,8.2,4.22A15,15,0,0,1,384,69.72V88h-4.87V70a9.69,9.69,0,0,0-.77-4.2,4.68,4.68,0,0,0-4.63-2.66,9.46,9.46,0,0,0-2.8.35,7.2,7.2,0,0,0-3.46,2.34,7,7,0,0,0-1.56,2.91,19.53,19.53,0,0,0-.36,4.29V88h-4.79V59.52Z"/></svg>